<svg xmlns="http://www.w3.org/2000/svg" fill="none" viewBox="0 0 97 97"><path fill="#FFD200" d="M48.708 88.535c22.226 0 40.243-18.018 40.243-40.243S70.934 8.049 48.708 8.049c-22.225 0-40.243 18.017-40.243 40.243 0 22.225 18.018 40.243 40.243 40.243"/><path fill="#CED2DB" d="M76.879 40.243C87.99 40.243 97 31.234 97 20.122 97 9.009 87.991 0 76.879 0 65.766 0 56.757 9.009 56.757 20.122s9.009 20.121 20.122 20.121"/><path fill="#0052FF" d="M87.422 37.263a20.03 20.03 0 0 1-10.543 2.98c-11.113 0-20.122-9.009-20.122-20.122 0-3.865 1.09-7.477 2.98-10.543 13.36 3.799 23.886 14.326 27.684 27.685"/><path fill="#3CC28A" d="M20.538 96.583c11.113 0 20.122-9.008 20.122-20.121S31.65 56.34 20.538 56.34.417 65.35.417 76.462s9.008 20.121 20.121 20.121"/><path fill="#0052FF" d="M37.68 87.005a20.03 20.03 0 0 0 2.98-10.543c0-11.113-9.008-20.122-20.121-20.122-3.866 0-7.477 1.09-10.543 2.98C13.794 72.68 24.32 83.206 37.68 87.005"/><path fill="#0A0B0D" d="m48.708 32.194 3.314 12.784 12.783 3.314-12.783 3.313-3.314 12.784-3.313-12.784-12.784-3.313 12.784-3.314z"/><path fill="#0A0B0D" fill-rule="evenodd" d="M48.708 79.203c17.072 0 30.911-13.84 30.911-30.911S65.78 17.38 48.71 17.38c-17.072 0-30.912 13.84-30.912 30.91 0 17.072 13.84 30.912 30.911 30.912m0 2.29c18.336 0 33.2-14.865 33.2-33.201s-14.864-33.2-33.2-33.2-33.2 14.864-33.2 33.2 14.864 33.2 33.2 33.2" clip-rule="evenodd"/></svg>